<?xml version="1.0" encoding="UTF-8" standalone="no"?>
<!-- Created with Inkscape (http://www.inkscape.org/) -->

<svg
   width="1920"
   height="280"
   viewBox="0 0 507.99999 74.083333"
   version="1.1"
   id="svg1"
   xml:space="preserve"
   inkscape:export-filename="section-2-intro-divder.svg"
   inkscape:export-xdpi="96"
   inkscape:export-ydpi="96"
   sodipodi:docname="section-6-intro-divder.svg"
   inkscape:version="1.4.2 (f4327f4, 2025-05-13)"
   xmlns:inkscape="http://www.inkscape.org/namespaces/inkscape"
   xmlns:sodipodi="http://sodipodi.sourceforge.net/DTD/sodipodi-0.dtd"
   xmlns="http://www.w3.org/2000/svg"
   xmlns:svg="http://www.w3.org/2000/svg"><sodipodi:namedview
     id="namedview1"
     pagecolor="#505050"
     bordercolor="#ffffff"
     borderopacity="1"
     inkscape:showpageshadow="0"
     inkscape:pageopacity="0"
     inkscape:pagecheckerboard="1"
     inkscape:deskcolor="#505050"
     inkscape:document-units="mm"
     inkscape:zoom="0.75429735"
     inkscape:cx="825.27135"
     inkscape:cy="460.69365"
     inkscape:window-width="1920"
     inkscape:window-height="1009"
     inkscape:window-x="-8"
     inkscape:window-y="-8"
     inkscape:window-maximized="1"
     inkscape:current-layer="layer1" /><defs
     id="defs1" /><g
     inkscape:label="Layer 1"
     inkscape:groupmode="layer"
     id="layer1"
     transform="translate(0.78070842,-182.55723)"><path
       style="opacity:1;fill:#588159;fill-opacity:1;stroke-width:0.264583"
       d="m 0.3391363,255.66995 c 4.9304831,-1.1482 4.9304831,-1.1482 4.9304831,-1.1482 h 8.1049046 l 6.112448,-2.60032 16.918986,0.67541 12.562602,-0.3377 4.423926,-0.64164 10.029819,1.51967 11.617029,1.35081 7.903368,-2.96373 27.070068,-2.14842 8.16399,-2.66404 12.50379,0.043 13.87877,-3.60934 8.12102,4.59762 14.95299,-2.74998 4.55464,0.60156 2.14842,-1.46093 6.01557,-0.55858 2.87888,-1.54686 8.59367,-1.11718 14.56627,1.07421 4.25387,-0.55859 7.30462,0.98827 6.48822,-3.00779 9.19522,4.51168 14.43737,0.47265 8.24992,0.73047 c 1.24609,-0.47266 1.24609,-0.47266 1.24609,-0.47266 l 2.23435,1.58983 c 6.57415,1.6328 6.57415,1.6328 6.57415,1.6328 l 2.4492,-0.42968 1.71873,0.73046 4.51168,-1.89061 2.44919,0.42968 9.36712,-1.37498 6.44525,-0.42969 c 5.49995,1.28905 5.49995,1.28905 5.49995,1.28905 3.13669,-1.50389 3.13669,-1.50389 3.13669,-1.50389 4.2109,-0.68749 4.2109,-0.68749 4.2109,-0.68749 l 1.03124,-0.64453 c 2.23435,0.8164 2.23435,0.8164 2.23435,0.8164 2.5781,-0.85936 2.5781,-0.85936 2.5781,-0.85936 l 7.60539,1.20311 c 8.37883,0.8164 8.37883,0.8164 8.37883,0.8164 l 5.88666,0.73046 c 3.65231,-0.68749 3.65231,-0.68749 3.65231,-0.68749 l 8.59366,0.9453 c 1.58983,0.47265 1.58983,0.47265 1.58983,0.47265 2.32032,1.54686 2.32032,1.54686 2.32032,1.54686 1.71873,0 1.71873,0 1.71873,0 1.33202,1.11718 1.33202,1.11718 1.33202,1.11718 5.80073,0 5.80073,0 5.80073,0 3.22262,-1.37499 3.22262,-1.37499 3.22262,-1.37499 4.29683,-0.68749 4.29683,-0.68749 4.29683,-0.68749 l 2.70701,-0.42969 c 9.92568,0.60156 9.92568,0.60156 9.92568,0.60156 l 2.92185,1.28905 8.08442,1.71545 5.51053,-4.07866 9.5458,0.30373 h 4.64272 l 3.34103,1.60543 7.89699,-1.82238 9.58919,-0.30373 10.84749,2.69018 c 0.34711,-0.82441 0.34711,-0.82441 0.34711,-0.82441 l 2.60342,0.47729 1.2583,-1.12814 1.73559,0.69424 1.60544,-0.99797 4.12205,0.99797 2.86374,-1.21492 h 2.82036 l 1.77898,-0.91119 c 1.69222,0.0868 1.69222,0.0868 1.69222,0.0868 l 3.38442,1.25831 c 0.43389,-1.69221 0.43389,-1.69221 0.43389,-1.69221 l 1.21491,-0.34712 c 2.64679,0.39051 2.64679,0.39051 2.64679,0.39051 0.21695,-0.99797 0.21695,-0.99797 0.21695,-0.99797 l 4.42579,-0.0434 c 3.99188,-2.12611 3.68814,-2.08272 3.68814,-2.08272 l 1.51865,0.78102 3.99188,-1.04136 h 3.99187 l 3.42781,1.17153 0.69424,-0.60746 4.55597,-0.26034 2.86374,1.3017 4.7729,0.69424 4.16541,-1.51865 0.13018,24.34178 H 0.31498542 l -0.78101982,-0.0868 -0.34712005,-10.32681 z"
       id="path3" /></g></svg>
